# This file uses centimeters as units for non-parametric coordinates.

g default
v -1.501609 0.242961 5.384512
v 1.501609 0.242961 5.384512
v -1.195094 1.294672 5.077996
v 1.195094 1.294672 5.077996
v -1.195094 1.294672 2.687807
v 1.195094 1.294672 2.687807
v -1.501609 0.242961 2.381291
v 1.501609 0.242961 2.381291
v -1.594938 1.470608 3.815792
v -2.004005 0.067026 3.798580
v 2.004005 0.067026 3.798580
v 1.594938 1.470608 3.815792
v 0.124828 1.470608 2.287963
v 0.156843 0.067026 1.878896
v 0.117523 0.242961 3.819719
v 0.156843 0.067026 5.886907
v 0.124828 1.470608 5.477840
v -0.907519 1.465151 4.913478
v 0.189374 1.611359 5.245760
v -1.239802 1.611359 3.864549
v 0.189374 1.611359 2.594879
v -0.907519 1.465151 2.927160
v 1.078797 1.465151 4.913478
v 1.411078 1.611359 3.864549
v 1.078797 1.465151 2.927160
v -0.713821 2.053742 4.928368
v 0.319225 2.187671 5.115551
v -1.126343 2.187671 4.008758
v 0.040847 2.187671 2.703300
v -0.922410 2.053742 3.120858
v 1.093688 2.053742 4.719778
v 1.285907 2.187671 3.730380
v 0.885098 2.053742 2.912269
v -0.549307 2.194500 4.717141
v 0.269588 2.309141 4.865519
v -0.876312 2.309141 3.988166
v -0.714655 2.194500 3.284328
v 0.883505 2.194500 4.551792
v 1.035877 2.309141 3.767497
v 0.718156 2.194500 3.118980
v -0.332023 3.305110 4.349602
v 0.140260 3.372606 4.480131
v -0.485021 3.372606 3.904778
v 0.112503 3.372606 3.347166
v -0.352822 3.305110 3.500666
v 0.516913 3.305110 4.328804
v 0.647944 3.372606 3.877021
v 0.496114 3.305110 3.479868
v -0.332023 4.001894 4.288991
v 0.140260 4.082982 4.419520
v -0.485021 4.082982 3.844167
v 0.112503 4.082982 3.286556
v -0.352822 4.001894 3.440056
v 0.516913 4.001894 4.268193
v 0.647944 4.082982 3.816411
v 0.496114 4.001894 3.419257
v -0.189252 5.448583 4.258979
v 0.119957 5.501671 4.344438
v 0.103307 5.448583 3.962040
v -0.289422 5.501671 3.967747
v 0.101784 5.501671 3.602671
v -0.202870 5.448583 3.703170
v 0.366557 5.448583 4.245362
v 0.452345 5.501671 3.949574
v 0.352940 5.448583 3.689552
v -0.550060 2.594153 2.990643
v 0.016332 2.731482 2.613401
v -0.427901 2.681469 3.123342
v 0.512748 2.613898 2.838320
v 0.414587 2.697121 3.002596
v -0.215144 3.472021 3.386454
v 0.058465 3.535841 3.280749
v 0.284027 3.473989 3.371266
v -0.438832 3.887304 2.927898
v 0.009008 3.918558 2.601802
v -0.342242 3.875070 3.022287
v 0.401520 3.902917 2.807457
v 0.323905 3.887446 2.926814
v -0.174017 3.858884 3.147203
v 0.042323 3.870374 3.058571
v 0.220672 3.860441 3.135194
v -0.322831 3.998354 2.939234
v 0.001371 4.020979 2.764695
v -0.252908 3.989497 3.007564
v 0.004087 4.007432 2.869207
v 0.285519 4.009656 2.852043
v 0.229332 3.998456 2.938449
v -0.131126 3.977780 3.097993
v 0.025488 3.986098 3.033831
v 0.154599 3.978907 3.089300
vt 0.209925 0.025376
vt 0.316817 0.001992
vt 0.315657 0.188544
vt 0.230584 0.165160
vt 0.412343 0.025376
vt 0.391683 0.165160
vt 0.312371 0.207251
vt 0.241673 0.187819
vt 0.375551 0.187819
vt 0.321414 0.283850
vt 0.254728 0.266049
vt 0.376555 0.266049
vt 0.318912 0.299994
vt 0.266051 0.284757
vt 0.362622 0.284757
vt 0.311530 0.441341
vt 0.281080 0.432370
vt 0.228053 0.283850
vt 0.244905 0.299994
vt 0.381539 0.340500
vt 0.370467 0.351561
vt 0.338298 0.432370
vt 0.315615 0.535758
vt 0.285165 0.524981
vt 0.383619 0.511825
vt 0.375574 0.509769
vt 0.345618 0.454816
vt 0.342384 0.524981
vt 0.306640 0.724318
vt 0.286704 0.717262
vt 0.380614 0.526012
vt 0.374790 0.524524
vt 0.361530 0.506180
vt 0.324166 0.717262
vt 0.364623 0.521925
vt 0.513431 0.001992
vt 0.620323 0.025376
vt 0.599664 0.165160
vt 0.514591 0.188544
vt 0.588575 0.187819
vt 0.517877 0.207251
vt 0.417905 0.025376
vt 0.438565 0.165160
vt 0.589579 0.266049
vt 0.527597 0.283850
vt 0.454697 0.187819
vt 0.575342 0.284757
vt 0.526209 0.299994
vt 0.467752 0.266049
vt 0.550570 0.432370
vt 0.520589 0.441341
vt 0.478770 0.284757
vt 0.546485 0.524981
vt 0.516503 0.535758
vt 0.493351 0.432370
vt 0.467920 0.349481
vt 0.458976 0.337876
vt 0.544462 0.717262
vt 0.524833 0.724318
vt 0.489266 0.524981
vt 0.485653 0.454554
vt 0.461109 0.508124
vt 0.454747 0.509750
vt 0.507000 0.717262
vt 0.469528 0.505973
vt 0.460116 0.523333
vt 0.455511 0.524510
vt 0.433550 0.356128
vt 0.432768 0.513904
vt 0.466211 0.521776
vt 0.443747 0.527517
vt 0.442330 0.771111
vt 0.436570 0.750270
vt 0.462344 0.751393
vt 0.461959 0.777863
vt 0.443248 0.733650
vt 0.463184 0.727867
vt 0.486565 0.751495
vt 0.479792 0.772029
vt 0.480710 0.734567
vt 0.554696 0.857254
vt 0.697687 0.858679
vt 0.700337 0.998008
vt 0.588557 0.964146
vt 0.588557 0.761729
vt 0.700337 0.727867
vt 0.824837 0.857254
vt 0.790975 0.964146
vt 0.790975 0.761729
vt 0.420135 0.754838
vt 0.408371 0.776689
vt 0.403766 0.771976
vt 0.413091 0.754654
vt 0.397671 0.763768
vt 0.401996 0.753212
vt 0.414248 0.735686
vt 0.408424 0.739473
vt 0.398257 0.744510
vt 0.417253 0.727867
vt 0.431114 0.754323
vt 0.001771 0.025376
vt 0.113551 0.001992
vt 0.111394 0.188544
vt 0.022431 0.165160
vt 0.204189 0.025376
vt 0.183530 0.165160
vt 0.115744 0.207251
vt 0.041813 0.187819
vt 0.175691 0.187819
vt 0.124496 0.283850
vt 0.054869 0.266049
vt 0.176695 0.266049
vt 0.121150 0.299994
vt 0.065957 0.284757
vt 0.112434 0.441341
vt 0.080602 0.432370
vt 0.162529 0.284757
vt 0.137820 0.432370
vt 0.112434 0.535758
vt 0.080602 0.524981
vt 0.137820 0.524981
vt 0.111065 0.724318
vt 0.090225 0.717262
vt 0.127686 0.717262
vt 0.646545 0.350736
vt 0.735508 0.327352
vt 0.737666 0.513904
vt 0.625886 0.490520
vt 0.665927 0.328078
vt 0.739858 0.308645
vt 0.807644 0.350736
vt 0.828303 0.490520
vt 0.664924 0.249847
vt 0.729847 0.232047
vt 0.799805 0.328078
vt 0.690020 0.178020
vt 0.728195 0.159768
vt 0.786750 0.249847
vt 0.761654 0.175396
vt 0.727702 0.001992
vt 0.754157 0.004071
vt 0.861655 0.800431
vt 0.830293 0.809402
vt 0.830293 0.716791
vt 0.861655 0.706014
vt 0.840399 0.524510
vt 0.860933 0.517454
vt 0.887511 0.809402
vt 0.887511 0.716791
vt 0.877861 0.524510
vt 0.492021 0.727867
vt 0.523384 0.736838
vt 0.519742 0.758534
vt 0.501301 0.750052
vt 0.549240 0.727867
vt 0.534945 0.750313
vt 0.518654 0.802997
vt 0.504073 0.801470
vt 0.530675 0.801677
vt 0.517520 0.818378
vt 0.506964 0.817273
vt 0.526222 0.817423
vn -0.510656 -0.679565 0.526709
vn -0.001907 -0.819949 0.572434
vn -0.011327 0.421705 0.906662
vn -0.637455 0.405764 0.654986
vn -0.660055 0.196589 0.725038
vn 0.014191 0.250842 0.967924
vn 0.000000 1.000000 0.000000
vn -0.944505 0.326188 0.038871
vn -0.606530 0.416312 -0.677352
vn -0.011320 0.455404 -0.890213
vn -0.002044 -0.789721 -0.613463
vn -0.502976 -0.658417 -0.559912
vn -0.555753 -0.831347 0.000986
vn -0.000000 -1.000000 0.000000
vn 0.572502 -0.640180 0.512261
vn 0.632050 -0.774927 0.001121
vn 0.918126 0.396288 -0.000734
vn 0.692323 0.372299 0.618128
vn -0.880891 0.473318 -0.000477
vn 0.564801 -0.619278 -0.545431
vn 0.661952 0.387847 -0.641400
vn -0.031651 0.376810 -0.925750
vn -0.658539 0.300497 -0.689948
vn 0.742765 0.194203 0.640769
vn 0.953074 0.302647 -0.007476
vn 0.675635 0.291725 -0.677062
vn 0.048086 0.425659 0.903605
vn -0.542952 0.616776 0.569904
vn -0.829734 0.557050 0.035171
vn -0.491054 0.667630 -0.559585
vn -0.017306 0.507937 -0.861220
vn 0.665012 0.471752 0.578973
vn 0.926636 0.374889 -0.028358
vn 0.610332 0.541843 -0.577842
vn 0.090498 0.464948 0.880700
vn -0.596376 0.352073 0.721374
vn -0.883147 0.459524 0.094284
vn -0.685471 0.243761 -0.686083
vn -0.111327 0.082532 -0.990351
vn 0.744451 0.350295 0.568407
vn 0.881485 0.463347 -0.091068
vn 0.627693 0.258204 -0.734392
vn 0.077723 0.512597 0.855104
vn -0.499338 0.592090 0.632528
vn -0.859221 0.506404 0.072767
vn -0.095291 0.877231 -0.470517
vn -0.423571 0.845293 -0.325681
vn -0.236229 0.884696 0.401881
vn -0.000002 0.991705 0.128536
vn -0.797554 0.578322 -0.171612
vn 0.653043 0.595327 0.468103
vn 0.856651 0.510234 -0.076231
vn 0.755316 0.579390 -0.306277
vn 0.344180 0.883602 -0.317471
vn 0.340351 0.890260 0.302654
vn 0.044121 0.250932 0.966999
vn -0.618499 0.290464 0.730130
vn -0.974855 0.216418 0.053117
vn -0.031872 0.781426 0.623183
vn 0.018022 0.883081 0.468874
vn -0.857582 0.248184 -0.450507
vn 0.753806 0.291767 0.588768
vn 0.975160 0.217141 -0.043741
vn 0.796308 0.253394 -0.549259
vn 0.209172 0.773192 0.598683
vn 0.026851 0.062442 0.997687
vn -0.681583 0.072984 0.728092
vn -0.995048 0.098326 0.014553
vn -0.024380 -0.024735 -0.999397
vn -0.672844 0.075159 -0.735957
vn -0.021800 0.135016 -0.990604
vn 0.769793 0.073371 0.634062
vn 0.994369 0.100310 -0.034194
vn 0.695890 0.072136 -0.714516
vn -0.678845 0.082309 -0.729654
vn -0.136232 -0.007998 -0.990645
vn -0.941305 0.330901 0.066703
vn 0.607331 0.107482 -0.787144
vn 0.927766 0.332439 -0.169512
vn -0.732576 0.339177 0.590162
vn 0.029176 0.492377 0.869893
vn 0.930351 0.280504 0.236147
vn -0.731715 0.066916 -0.678319
vn -0.134933 0.066935 -0.988591
vn -0.784405 0.170510 0.596352
vn 0.667469 0.087568 -0.739471
vn 0.914490 0.155505 0.373532
vn -0.595351 0.339380 0.728270
vn 0.025545 0.462601 0.886199
vn 0.846064 0.282736 0.451924
s 1
g pCube3
f 1/101/1 16/102/2 17/103/3 3/104/4
f 57/72/5 58/73/6 59/74/7 60/75/8
f 5/125/9 13/126/10 14/127/11 7/128/12
f 10/81/13 15/82/14 16/83/2 1/84/1
f 2/1/15 11/2/16 12/3/17 4/4/18
f 10/36/13 1/37/1 3/38/4 9/39/19
f 7/42/12 10/36/13 9/39/19 5/43/9
f 7/85/12 14/86/11 15/82/14 10/81/13
f 12/3/17 11/2/16 8/5/20 6/6/21
f 60/75/8 59/74/7 61/78/22 62/79/23
f 13/126/10 6/131/21 8/132/20 14/127/11
f 15/82/14 14/86/11 8/89/20 11/87/16
f 16/83/2 15/82/14 11/87/16 2/88/15
f 17/103/3 16/102/2 2/105/15 4/106/18
f 59/74/7 58/73/6 63/76/24 64/77/25
f 61/78/22 59/74/7 64/77/25 65/80/26
f 3/104/4 17/103/3 19/107/27 18/108/28
f 9/39/19 3/38/4 18/40/28 20/41/29
f 13/126/10 5/125/9 22/129/30 21/130/31
f 5/43/9 9/39/19 20/41/29 22/46/30
f 17/103/3 4/106/18 23/109/32 19/107/27
f 4/4/18 12/3/17 24/7/33 23/8/32
f 12/3/17 6/6/21 25/9/34 24/7/33
f 6/131/21 13/126/10 21/130/31 25/135/34
f 18/108/28 19/107/27 27/110/35 26/111/36
f 20/41/29 18/40/28 26/44/36 28/45/37
f 21/130/31 22/129/30 30/133/38 29/134/39
f 22/46/30 20/41/29 28/45/37 30/49/38
f 19/107/27 23/109/32 31/112/40 27/110/35
f 23/8/32 24/7/33 32/10/41 31/11/40
f 24/7/33 25/9/34 33/12/42 32/10/41
f 25/135/34 21/130/31 29/134/39 33/138/42
f 26/111/36 27/110/35 35/113/43 34/114/44
f 28/45/37 26/44/36 34/47/44 36/48/45
f 83/90/46 82/91/47 84/92/48 85/93/49
f 30/49/38 28/45/37 36/48/45 37/52/50
f 27/18/35 31/11/40 38/14/51 35/19/43
f 31/11/40 32/10/41 39/13/52 38/14/51
f 32/10/41 33/12/42 40/15/53 39/13/52
f 86/96/54 83/90/46 85/93/49 87/97/55
f 34/114/44 35/113/43 42/115/56 41/116/57
f 36/48/45 34/47/44 41/50/57 43/51/58
f 85/93/49 84/92/48 88/94/59 89/95/60
f 37/52/50 36/48/45 43/51/58 45/55/61
f 35/113/43 38/117/51 46/118/62 42/115/56
f 38/14/51 39/13/52 47/16/63 46/17/62
f 39/13/52 40/15/53 48/22/64 47/16/63
f 87/97/55 85/93/49 89/95/60 90/98/65
f 41/116/57 42/115/56 50/119/66 49/120/67
f 43/51/58 41/50/57 49/53/67 51/54/68
f 44/142/69 45/143/61 53/144/70 52/145/71
f 45/55/61 43/51/58 51/54/68 53/60/70
f 42/115/56 46/118/62 54/121/72 50/119/66
f 46/17/62 47/16/63 55/23/73 54/24/72
f 47/16/63 48/22/64 56/28/74 55/23/73
f 48/148/64 44/142/69 52/145/71 56/149/74
f 49/120/67 50/119/66 58/122/6 57/123/5
f 51/54/68 49/53/67 57/58/5 60/59/8
f 52/145/71 53/144/70 62/146/23 61/147/22
f 53/60/70 51/54/68 60/59/8 62/64/23
f 50/119/66 54/121/72 63/124/24 58/122/6
f 54/24/72 55/23/73 64/29/25 63/30/24
f 55/23/73 56/28/74 65/34/26 64/29/25
f 56/149/74 52/145/71 61/147/22 65/150/26
f 29/134/39 30/133/38 66/136/75 67/137/76
f 30/49/38 37/52/50 68/56/77 66/57/75
f 33/138/42 29/134/39 67/137/76 69/139/78
f 40/15/53 33/12/42 69/20/78 70/21/79
f 37/52/50 45/55/61 71/61/80 68/56/77
f 45/151/61 44/152/69 72/153/81 71/154/80
f 44/152/69 48/155/64 73/156/82 72/153/81
f 48/22/64 40/15/53 70/21/79 73/27/82
f 67/68/76 66/57/75 74/63/83 75/69/84
f 66/57/75 68/56/77 76/62/85 74/63/83
f 69/139/78 67/137/76 75/140/84 77/141/86
f 70/21/79 69/20/78 77/25/86 78/26/87
f 68/56/77 71/61/80 79/65/88 76/62/85
f 71/154/80 72/153/81 80/157/89 79/158/88
f 72/153/81 73/156/82 81/159/90 80/157/89
f 73/27/82 70/21/79 78/26/87 81/33/90
f 75/69/84 74/63/83 82/67/47 83/71/46
f 74/63/83 76/62/85 84/66/48 82/67/47
f 77/99/86 75/100/84 83/90/46 86/96/54
f 78/26/87 77/25/86 86/31/54 87/32/55
f 76/62/85 79/65/88 88/70/59 84/66/48
f 79/158/88 80/157/89 89/160/60 88/161/59
f 80/157/89 81/159/90 90/162/65 89/160/60
f 81/33/90 78/26/87 87/32/55 90/35/65
