# This file uses centimeters as units for non-parametric coordinates.

g default
v -2.275258 2.005797 -3.586478
v 2.278028 2.005797 -3.589248
v -1.229229 3.215649 -3.894946
v 1.954001 3.213324 -4.586766
v -1.996562 3.212053 -7.101442
v 1.370934 3.235226 -7.824224
v -2.359277 2.005797 -7.846871
v 2.039196 3.108157 -6.673434
v -1.717351 3.362284 -5.461468
v -2.580331 1.857461 -5.870652
v 2.637393 2.109704 -6.402549
v 0.430013 3.360845 -3.835562
v 0.197680 3.230155 -7.817263
v 0.526418 1.986835 -8.517692
v 0.499216 1.857461 -3.028449
v -1.144782 3.635261 -4.014149
v 0.824731 3.773699 -4.057242
v -1.603508 3.773066 -5.486333
v 0.014731 3.769488 -7.784238
v -1.794941 3.631881 -7.005676
v 1.846745 3.633076 -4.664305
v 1.941535 3.631074 -6.255582
v 1.196587 3.629696 -7.655832
v -0.984586 3.817653 -4.239930
v 0.745079 3.939232 -4.277775
v -1.387449 3.938675 -5.532831
v 0.033721 3.935534 -7.550897
v -1.555568 3.814685 -6.867149
v 1.642632 3.815734 -4.810911
v 1.725879 3.813976 -6.208400
v 1.071650 3.812766 -7.438129
v -0.717879 3.831207 -4.615661
v 0.612267 3.924703 -4.644764
v -1.027688 3.924275 -5.609927
v 0.065219 3.921859 -7.161858
v -1.156975 3.828924 -6.636040
v 1.302502 3.829730 -5.054755
v 1.366521 3.828378 -6.129451
v 0.863407 3.827448 -7.075136
v -0.616052 3.704091 -4.759036
v 0.561469 3.786859 -4.784800
v -0.890312 3.786480 -5.639215
v 0.077190 3.784342 -7.013073
v -1.004765 3.702071 -6.547590
v 1.172504 3.702784 -5.147747
v 1.229177 3.701588 -6.099129
v 0.783792 3.700764 -6.936301
v -0.480170 2.823304 -4.949950
v 0.493188 2.891721 -4.971246
v -0.706878 2.891408 -5.677520
v 0.092876 2.889640 -6.813174
v -0.801486 2.821634 -6.428398
v 0.998279 2.822223 -5.271265
v 1.045126 2.821234 -6.057692
v 0.676963 2.820553 -6.749713
v -0.340840 2.375225 -5.410053
v 0.233056 2.416594 -5.298724
v -0.381390 2.416594 -5.865814
v 0.232368 2.416594 -6.430573
v -0.341393 2.375225 -6.318547
v 0.567654 2.375225 -5.410606
v 0.695155 2.375225 -5.866166
v 0.567101 2.375225 -6.319098
v 3.289307 2.100110 -6.767924
v 2.095396 2.770533 -7.094954
v 1.760354 3.122035 -8.484264
v 0.343925 3.074291 -8.475861
v 0.740799 1.993281 -9.321465
v 3.349878 2.185987 -7.208361
v 2.380050 2.730579 -7.474013
v 2.767683 2.185987 -8.997509
v 2.107892 3.016108 -8.602564
v 0.957310 2.977324 -8.595738
v 1.279695 2.099208 -9.282632
v 2.024627 3.005965 -6.812338
v 1.465761 3.178974 -7.963127
v 0.292508 3.164250 -7.956167
v 0.621245 2.018333 -8.656598
v 2.732221 2.131576 -6.541453
v -0.387340 1.962452 -5.361035
v 0.223334 2.006473 -5.242572
v 0.136869 1.962452 -5.846026
v -0.430488 2.006473 -5.846003
v 0.222601 2.006473 -6.446954
v -0.387928 1.962452 -6.327748
v 0.579373 1.962452 -5.361623
v 0.715045 1.962452 -5.846378
v 0.578785 1.962452 -6.328335
v -2.770345 1.411508 -5.851151
v 0.181567 1.569350 -5.851328
v 0.506550 1.411508 -2.826810
v -2.445722 1.569350 -3.420599
v -2.535125 1.569350 -7.954014
v 0.535495 1.549173 -8.667823
v 2.277685 1.569350 -8.512257
v 2.781749 1.679917 -6.417133
v 2.399354 1.569350 -3.423547
v 2.399504 1.597447 -8.690696
v 2.882654 1.703190 -6.564939
v 0.636399 1.582689 -8.815630
v 2.712796 1.669707 -9.149609
v 3.475440 1.669707 -6.805923
v 2.920389 1.761087 -9.178388
v 3.539892 1.761087 -7.274585
v 0.763614 1.556032 -9.523104
v 1.337045 1.668748 -9.481783
vt 0.542229 0.386289
vt 0.551053 0.165454
vt 0.635848 0.144160
vt 0.644779 0.307965
vt 0.505163 0.399303
vt 0.514553 0.164316
vt 0.552911 0.154555
vt 0.627169 0.133255
vt 0.680257 0.176958
vt 0.680427 0.301873
vt 0.516530 0.152718
vt 0.550239 0.136802
vt 0.607175 0.111073
vt 0.646639 0.053788
vt 0.641862 0.042888
vt 0.680140 0.066999
vt 0.695790 0.180652
vt 0.695939 0.290355
vt 0.637027 0.001992
vt 0.695687 0.084083
vt 0.815248 0.733731
vt 0.802651 0.578603
vt 0.930449 0.546440
vt 0.917691 0.675196
vt 0.778182 0.742151
vt 0.764778 0.577082
vt 0.815248 0.399275
vt 0.917996 0.423441
vt 0.965335 0.548387
vt 0.953345 0.667668
vt 0.778182 0.386261
vt 0.953632 0.432794
vt 0.979400 0.552027
vt 0.968870 0.656782
vt 0.969122 0.450511
vt 0.264204 0.986306
vt 0.195095 0.979309
vt 0.210076 0.904507
vt 0.267203 0.910291
vt 0.261912 0.998008
vt 0.183844 0.990104
vt 0.246188 0.866454
vt 0.281969 0.869967
vt 0.335520 0.979137
vt 0.326153 0.904365
vt 0.342471 0.989910
vt 0.242342 0.831398
vt 0.280416 0.835137
vt 0.317508 0.866454
vt 0.318232 0.831398
vt 0.498041 0.838705
vt 0.497940 0.913388
vt 0.423175 0.910144
vt 0.423259 0.848410
vt 0.508822 0.831398
vt 0.508707 0.915762
vt 0.497870 0.979130
vt 0.423117 0.964487
vt 0.385297 0.895125
vt 0.385297 0.859369
vt 0.508628 0.990025
vt 0.385297 0.930688
vt 0.350242 0.893571
vt 0.350242 0.855523
vt 0.350242 0.931412
vt 0.879198 0.785912
vt 0.934168 0.883230
vt 0.893373 0.875590
vt 0.827010 0.783784
vt 0.890098 0.783237
vt 0.945068 0.888827
vt 0.811182 0.746650
vt 0.866714 0.748914
vt 0.878313 0.746068
vt 0.045800 0.797111
vt 0.045800 0.937591
vt 0.009715 0.932402
vt 0.009715 0.782918
vt 0.092050 0.916691
vt 0.116299 0.828083
vt 0.038507 0.972164
vt 0.001955 0.969190
vt 0.892836 0.902073
vt 0.940770 0.892744
vt 0.934011 0.940121
vt 0.889472 0.940146
vt 0.968726 0.902073
vt 0.979400 0.940121
vt 0.940770 0.987291
vt 0.892836 0.977962
vt 0.968726 0.977962
vt 0.001955 0.290082
vt 0.233688 0.290209
vt 0.259056 0.527657
vt 0.027323 0.480902
vt 0.020521 0.125012
vt 0.261607 0.069123
vt 0.437837 0.245916
vt 0.407675 0.480902
vt 0.398366 0.081419
vt 0.269535 0.057525
vt 0.407938 0.067416
vt 0.445765 0.234317
vt 0.279556 0.001992
vt 0.432554 0.031405
vt 0.492312 0.215428
vt 0.324570 0.005263
vt 0.448852 0.029156
vt 0.497394 0.178640
vt 0.483913 0.534863
vt 0.564173 0.582470
vt 0.548157 0.593989
vt 0.477671 0.552179
vt 0.521467 0.613148
vt 0.467263 0.580995
vt 0.329299 0.531574
vt 0.341886 0.549291
vt 0.554759 0.703692
vt 0.526544 0.697511
vt 0.511267 0.620454
vt 0.463281 0.591991
vt 0.362841 0.578774
vt 0.503459 0.800260
vt 0.487094 0.771774
vt 0.370842 0.590025
vt 0.310322 0.650807
vt 0.338568 0.656842
vt 0.421984 0.809163
vt 0.424438 0.778620
vt 0.297188 0.755562
vt 0.328467 0.737401
vt 0.513277 0.817345
vt 0.420504 0.827481
vt 0.425371 0.766940
vt 0.480837 0.760879
vt 0.278403 0.766448
vt 0.340412 0.730450
vt 0.154324 0.779001
vt 0.154814 0.686897
vt 0.165714 0.679447
vt 0.165223 0.771551
vt 0.206610 0.656295
vt 0.206018 0.767489
vt 0.215881 0.629007
vt 0.215400 0.719331
vt 0.097530 0.630060
vt 0.127273 0.607696
vt 0.269308 0.693990
vt 0.246853 0.577192
vt 0.272382 0.736293
vt 0.071800 0.536350
vt 0.106373 0.531574
vt 0.752633 0.368954
vt 0.740036 0.151177
vt 0.867712 0.156571
vt 0.855381 0.286823
vt 0.715568 0.382344
vt 0.702163 0.150611
vt 0.752633 0.011509
vt 0.855184 0.036898
vt 0.902774 0.125574
vt 0.891017 0.280188
vt 0.715568 0.001992
vt 0.890831 0.045314
vt 0.617535 0.667612
vt 0.615997 0.495323
vt 0.721588 0.469483
vt 0.719977 0.696050
vt 0.581880 0.651788
vt 0.570194 0.509687
vt 0.758757 0.468763
vt 0.757043 0.709850
vt 0.615567 0.403220
vt 0.582066 0.416914
vt 0.516639 0.838427
vt 0.609079 0.831398
vt 0.603728 0.907418
vt 0.527315 0.913229
vt 0.657064 0.838538
vt 0.643393 0.913321
vt 0.583322 0.947769
vt 0.538275 0.951282
vt 0.609594 0.951282
vt 0.582556 0.982599
vt 0.534622 0.986337
vt 0.610512 0.986337
vt 0.748869 0.900793
vt 0.663910 0.893807
vt 0.679863 0.819035
vt 0.750091 0.824810
vt 0.715976 0.781123
vt 0.761023 0.784636
vt 0.804335 0.893696
vt 0.795940 0.818943
vt 0.712323 0.746068
vt 0.760257 0.749806
vt 0.787295 0.781123
vt 0.788213 0.746068
vt 0.139006 0.954015
vt 0.130010 0.911712
vt 0.166568 0.907201
vt 0.176140 0.952215
vt 0.122641 0.794915
vt 0.158725 0.782919
vt 0.880779 0.907358
vt 0.883451 0.951101
vt 0.847070 0.939291
vt 0.844227 0.892744
vn -0.610953 0.580014 0.538814
vn 0.077782 0.495719 0.864993
vn 0.085911 0.470273 0.878329
vn -0.472222 0.530662 0.703849
vn 0.472583 0.709570 -0.522661
vn 0.016090 0.711827 -0.702170
vn 0.016913 0.999857 -0.000014
vn 0.597724 0.801700 -0.001935
vn -0.686363 0.504640 -0.523683
vn -0.222836 0.433237 -0.873298
vn -0.275321 0.478668 -0.833712
vn -0.566406 0.546639 -0.616742
vn -0.126305 -0.991942 -0.009945
vn 0.023083 -0.999623 -0.014857
vn 0.024204 -0.989729 0.140889
vn -0.125403 -0.982733 0.136053
vn 0.588593 0.567521 0.575742
vn 0.898177 0.432110 0.080987
vn 0.898725 0.436901 -0.037563
vn 0.767437 0.487528 0.416361
vn -0.870863 0.483833 0.086621
vn -0.870577 0.473617 0.133351
vn 0.015483 0.736193 0.676595
vn 0.474573 0.725230 0.498821
vn -0.110880 -0.980204 -0.164032
vn -0.005261 -0.992834 -0.119385
vn 0.547188 0.836967 0.008478
vn 0.570163 0.821390 0.015266
vn 0.452177 0.767099 -0.455077
vn 0.366953 0.792359 -0.487354
vn -0.494764 0.740840 -0.454274
vn -0.677870 0.735165 -0.005070
vn -0.492930 0.750698 0.439855
vn 0.022554 0.573097 -0.819177
vn 0.001482 0.598931 -0.800800
vn 0.044261 -0.998935 0.013066
vn 0.168258 -0.985675 0.011541
vn 0.200199 -0.977380 0.068185
vn 0.274111 0.475370 0.835994
vn -0.472765 0.538730 0.697326
vn -0.835319 0.517532 0.185480
vn -0.687106 0.426954 -0.587874
vn -0.220430 0.396799 -0.891045
vn 0.827443 0.376378 0.416746
vn 0.884470 0.452567 -0.113558
vn 0.525256 0.595191 -0.608156
vn 0.493234 0.540108 -0.681912
vn 0.064696 0.949187 0.307990
vn -0.199765 0.920308 0.336343
vn -0.285334 0.956488 0.060947
vn -0.321204 0.919655 -0.225970
vn -0.069417 0.948491 -0.309105
vn 0.387158 0.912119 0.134710
vn 0.387557 0.917901 -0.085194
vn 0.295148 0.911792 -0.285521
vn -0.043898 0.980557 -0.191260
vn 0.038095 0.997202 -0.064327
vn 0.227692 0.972424 -0.050480
vn 0.060843 0.997316 0.040727
vn 0.038987 0.980987 0.190117
vn -0.050880 0.994133 -0.095449
vn -0.134769 0.990475 0.028213
vn -0.006947 0.994336 0.106056
vn -0.196590 0.354701 -0.914078
vn 0.461972 0.424154 -0.778893
vn 0.922333 0.330107 -0.200826
vn 0.742132 0.425490 0.517879
vn 0.200374 0.356756 0.912456
vn -0.805217 0.384433 -0.451483
vn -0.919355 0.339145 0.199418
vn -0.543790 0.385781 0.745295
vn -0.193300 0.332246 -0.923173
vn 0.458995 0.388958 -0.798771
vn 0.929752 0.317377 -0.186636
vn 0.754450 0.391047 0.527149
vn 0.188787 0.329100 0.925231
vn -0.821545 0.371723 -0.432304
vn -0.921139 0.339988 0.189503
vn -0.570579 0.368738 0.733807
vn -0.086802 0.639182 -0.764142
vn 0.499614 0.688300 -0.525955
vn 0.790751 0.601532 -0.113456
vn 0.487761 0.692924 0.530985
vn 0.093852 0.618692 0.780008
vn -0.569113 0.679477 -0.463056
vn -0.761456 0.645026 0.064243
vn -0.543590 0.671394 0.503726
vn 0.621309 0.750102 0.226542
vn 0.642048 0.766425 0.019157
vn 0.051808 -0.998545 -0.014953
vn 0.214295 -0.951759 0.219618
vn 0.262931 0.955234 -0.135626
vn -0.559456 0.739147 -0.375061
vn -0.964382 -0.188101 -0.185970
vn -0.251777 -0.958365 -0.134706
vn 0.505919 0.851297 0.139065
vn 0.467419 0.850119 0.242523
vn 0.275598 -0.949795 0.148105
vn 0.134974 -0.981164 -0.138198
vn 0.728289 0.053503 -0.683179
vn 0.948560 -0.217282 -0.230267
vn 0.208826 0.962087 -0.175444
vn -0.475406 0.436072 -0.764088
vn -0.693366 0.567934 -0.443501
vn -0.154583 -0.948643 -0.276009
vn 0.137062 0.174427 -0.975084
vn 0.198174 -0.137570 -0.970465
vn 0.198174 -0.137570 -0.970465
vn 0.987455 -0.122998 -0.099019
vn 0.987455 -0.122998 -0.099019
vn 0.194486 -0.043771 0.979928
vn 0.194486 -0.043771 0.979928
vn 0.988703 -0.113643 0.097732
vn 0.988703 -0.113643 0.097732
vn -0.328175 -0.120496 -0.936900
vn -0.328175 -0.120496 -0.936900
vn -0.961305 -0.059221 -0.269047
vn -0.961305 -0.059221 -0.269047
vn -0.961747 -0.033308 0.271907
vn -0.961747 -0.033308 0.271907
vn -0.319183 -0.030232 0.947211
vn -0.319183 -0.030232 0.947211
vn -0.159489 0.404543 0.900504
vn -0.159489 0.404543 0.900504
vn -0.914146 0.393726 0.096524
vn -0.914146 0.393726 0.096524
vn -0.213093 0.313060 -0.925519
vn -0.213093 0.313060 -0.925519
vn -0.918632 0.388197 -0.073617
vn -0.918632 0.388197 -0.073617
vn 0.941039 0.311603 0.131715
vn 0.941039 0.311603 0.131715
vn 0.244479 0.402829 0.882020
vn 0.244479 0.402829 0.882020
vn 0.782761 0.243475 0.572717
vn 0.782761 0.243475 0.572717
vn -0.831610 0.164688 -0.530379
vn -0.831610 0.164688 -0.530379
vn 0.859452 0.427935 -0.279669
vn 0.859452 0.427934 -0.279669
vn 0.905988 0.374360 0.197588
vn 0.905988 0.374360 0.197588
vn -0.016711 0.417993 -0.908296
vn -0.016711 0.417993 -0.908296
vn 0.145460 0.431318 -0.890397
vn 0.145460 0.431318 -0.890397
vn -0.983546 0.030772 -0.178016
vn -0.983546 0.030772 -0.178016
vn 0.379313 0.082675 0.921567
vn 0.379313 0.082675 0.921567
s 1
g pCube2
f 1/153/1 15/154/2 12/155/3 3/156/4
s 2
f 80/83/5 81/84/6 82/85/7 83/86/8
s 1
f 5/165/9 13/166/10 14/167/11 7/168/12
s 4
f 89/92/13 90/93/14 91/94/15 92/95/16
s 1
f 2/1/17 11/2/18 8/3/19 4/4/20
f 10/22/21 1/27/1 3/28/4 9/23/22
s 2
f 83/86/8 82/85/7 84/89/23 85/90/24
s 1
f 7/21/12 10/22/21 9/23/22 5/24/9
s 4
f 93/96/25 94/97/26 90/93/14 89/92/13
s 1
f 70/79/27 69/76/28 71/75/29 72/80/30
s 2
f 81/84/6 86/87/31 87/88/32 82/85/7
f 84/89/23 82/85/7 87/88/32 88/91/33
s 1
f 74/148/34 73/145/35 72/144/30 71/149/29
s 4
f 90/93/14 94/97/26 95/100/36 96/98/37
f 91/94/15 90/93/14 96/98/37 97/99/38
s 1
f 12/155/3 15/154/2 2/159/17 4/160/20
f 3/156/4 12/155/3 17/161/39 16/162/40
f 9/23/22 3/28/4 16/32/40 18/29/41
f 13/166/10 5/165/9 20/169/42 19/170/43
f 5/24/9 9/23/22 18/29/41 20/30/42
f 12/155/3 4/160/20 21/164/44 17/161/39
f 4/4/20 8/3/19 22/9/45 21/10/44
f 8/3/19 6/14/46 23/16/47 22/9/45
f 6/173/46 13/166/10 19/170/43 23/174/47
f 16/116/40 17/110/39 25/113/48 24/117/49
f 18/29/41 16/32/40 24/35/49 26/33/50
f 19/133/43 20/136/42 28/130/51 27/128/52
f 20/30/42 18/29/41 26/33/50 28/34/51
f 17/110/39 21/111/44 29/112/53 25/113/48
f 21/10/44 22/9/45 30/17/54 29/18/53
f 22/9/45 23/16/47 31/20/55 30/17/54
f 23/132/47 19/133/43 27/128/52 31/123/55
f 24/117/49 25/113/48 33/115/56 32/122/57
f 26/126/50 24/117/49 32/122/57 34/127/58
f 27/128/52 28/130/51 36/131/59 35/129/60
f 28/130/51 26/126/50 34/127/58 36/131/59
f 25/113/48 29/112/53 37/114/61 33/115/56
f 29/112/53 30/118/54 38/119/62 37/114/61
f 30/118/54 31/123/55 39/124/63 38/119/62
f 31/123/55 27/128/52 35/129/60 39/124/63
f 32/122/57 33/115/56 41/121/64 40/125/65
f 34/40/58 32/41/57 40/37/65 42/36/66
f 35/129/60 36/131/59 44/137/67 43/134/68
f 36/46/59 34/40/58 42/36/66 44/44/67
f 33/115/56 37/114/61 45/120/69 41/121/64
f 37/55/61 38/56/62 46/52/70 45/51/69
f 38/56/62 39/61/63 47/57/71 46/52/70
f 39/124/63 35/129/60 43/134/68 47/135/71
f 40/175/65 41/176/64 49/177/72 48/178/73
f 42/36/66 40/37/65 48/38/73 50/39/74
f 43/187/68 44/188/67 52/189/75 51/190/76
f 44/44/67 42/36/66 50/39/74 52/45/75
f 41/176/64 45/179/69 53/180/77 49/177/72
f 45/51/69 46/52/70 54/53/78 53/54/77
f 46/52/70 47/57/71 55/58/79 54/53/78
f 47/193/71 43/187/68 51/190/76 55/194/79
f 48/178/73 49/177/72 57/181/80 56/182/81
f 50/39/74 48/38/73 56/42/81 58/43/82
f 51/190/76 52/189/75 60/191/83 59/192/84
f 52/45/75 50/39/74 58/43/82 60/49/83
f 49/177/72 53/180/77 61/183/85 57/181/80
f 53/54/77 54/53/78 62/59/86 61/60/85
f 54/53/78 55/58/79 63/62/87 62/59/86
f 55/194/79 51/190/76 59/192/84 63/197/87
f 8/3/19 11/2/18 79/7/88 75/8/89
s 4
f 96/98/37 95/100/36 98/102/90 99/103/91
s 1
f 6/14/46 8/3/19 75/8/89 76/15/92
f 14/70/11 13/71/10 77/67/93 78/66/94
f 13/138/10 6/139/46 76/140/92 77/141/93
s 4
f 95/100/36 94/97/26 100/101/95 98/102/90
s 1
f 65/146/96 64/151/97 69/152/28 70/147/27
s 4
f 102/106/98 101/105/99 103/108/100 104/109/101
s 1
f 66/142/102 65/146/96 70/147/27 72/144/30
f 68/150/103 67/143/104 73/145/35 74/148/34
f 67/143/104 66/142/102 72/144/30 73/145/35
s 4
f 101/105/99 105/104/105 106/107/106 103/108/100
s 1
f 76/15/92 75/8/89 65/13/96 66/19/102
f 77/141/93 76/140/92 66/142/102 67/143/104
f 78/66/94 77/67/93 67/68/104 68/69/103
s 4
f 98/102/90 100/101/95 105/104/105 101/105/99
f 99/103/91 98/102/90 101/105/99 102/106/98
s 1
f 75/8/89 79/7/88 64/12/97 65/13/96
s 2
f 56/182/107 57/181/108 81/184/6 80/185/5
f 58/43/109 56/42/110 80/47/5 83/48/8
f 59/192/111 60/191/112 85/195/24 84/196/23
f 60/49/113 58/43/114 83/48/8 85/50/24
f 57/181/115 61/183/116 86/186/31 81/184/6
f 61/60/117 62/59/118 87/63/32 86/64/31
f 62/59/119 63/62/120 88/65/33 87/63/32
f 63/197/121 59/192/122 84/196/23 88/198/33
s 4
f 15/154/123 1/153/124 92/157/16 91/158/15
f 1/27/125 10/22/126 89/26/13 92/31/16
f 7/168/127 14/167/128 94/171/26 93/172/25
f 10/22/129 7/21/130 93/25/25 89/26/13
f 11/2/131 2/1/132 97/5/38 96/6/37
f 2/159/133 15/154/134 91/158/15 97/163/38
f 79/7/135 11/2/136 96/6/37 99/11/91
f 14/70/137 78/66/138 100/73/95 94/74/26
f 71/75/139 69/76/140 104/77/101 103/78/100
f 69/76/141 64/81/142 102/82/98 104/77/101
f 68/199/143 74/200/144 106/201/106 105/202/105
f 74/200/145 71/203/146 103/204/100 106/201/106
f 78/66/147 68/69/148 105/72/105 100/73/95
f 64/205/149 79/206/150 99/207/91 102/208/98
