# This file uses centimeters as units for non-parametric coordinates.

mtllib BoneRibs1.mtl
g default
v 6.965070 0.548189 -4.366351
v 7.680388 0.548189 -4.366351
v 6.965070 0.662103 -4.913034
v 7.680388 0.662103 -4.913034
v 6.965070 -0.027593 -5.060483
v 7.680388 -0.027593 -5.060483
v 6.965070 -0.142646 -4.508118
v 7.680388 -0.142646 -4.508118
v 7.023645 1.151025 -5.978451
v 7.621813 1.151025 -5.978451
v 7.621814 0.585424 -6.359625
v 7.023644 0.585424 -6.359625
v 7.118030 2.194560 -7.118512
v 7.527428 2.194560 -7.118512
v 7.531374 2.071855 -7.566884
v 7.114084 2.071855 -7.566884
v 7.184463 3.093981 -7.627076
v 7.460996 3.093981 -7.627076
v 7.462374 3.015861 -7.927138
v 7.183084 3.015861 -7.927138
v 7.207967 4.388207 -7.727682
v 7.437491 4.388207 -7.727682
v 7.437882 4.367105 -7.974939
v 7.207576 4.367105 -7.974939
v 7.252303 5.453305 -7.343462
v 7.393155 5.453305 -7.343462
v 7.393395 5.535347 -7.471758
v 7.252063 5.535347 -7.471758
v 7.680388 0.604157 -4.641978
v 6.965070 0.604157 -4.641978
v 7.408423 5.494326 -7.407610
v 7.237035 5.494326 -7.407610
v 7.680388 -0.085540 -4.789427
v 6.965070 -0.085540 -4.789427
v 7.757186 0.202771 -4.437234
v 6.888272 0.202771 -4.437234
v 7.757186 0.259309 -4.715703
v 7.757186 0.317255 -4.986759
v 6.888272 0.259309 -4.715703
v 6.888272 0.317255 -4.986759
v 7.651101 0.882985 -5.455844
v 6.994357 0.882985 -5.455844
v 7.721254 0.552812 -5.601964
v 7.651101 0.255337 -5.720157
v 7.686034 0.868224 -6.169038
v 6.994357 0.255337 -5.720157
v 6.924204 0.552812 -5.601964
v 6.959424 0.868224 -6.169038
v 7.574621 1.622069 -6.717452
v 7.070837 1.622069 -6.717452
v 7.633363 1.398263 -6.905066
v 7.576594 1.277916 -7.132225
v 7.573779 2.133207 -7.342698
v 7.068864 1.277916 -7.132225
v 7.012095 1.398263 -6.905066
v 7.071680 2.169282 -7.426921
v 7.494212 2.680345 -7.457017
v 7.151246 2.680345 -7.457017
v 7.535374 2.599544 -7.630204
v 7.496874 2.579933 -7.831234
v 7.491522 3.054921 -7.777107
v 7.148584 2.579933 -7.831234
v 7.110084 2.599544 -7.630205
v 7.153936 3.054921 -7.777107
v 7.449243 3.760603 -7.722925
v 7.196215 3.760603 -7.722925
v 7.477325 3.718571 -7.861836
v 7.450128 3.710992 -7.996585
v 7.462370 4.377657 -7.851311
v 7.195331 3.710992 -7.996585
v 7.168133 3.718571 -7.861836
v 7.183088 4.377657 -7.851311
v 7.415323 4.947529 -7.598077
v 7.230135 4.947529 -7.598077
v 7.436591 4.939125 -7.707005
v 7.415638 4.977998 -7.785853
v 7.229820 4.977998 -7.785853
v 7.208867 4.939125 -7.707005
v 6.965070 0.443265 -3.817853
v 7.680388 0.443265 -3.817853
v 6.965070 -0.248708 -3.953937
v 7.680388 -0.248708 -3.953937
v 7.023645 0.473209 -2.646022
v 7.621813 0.473209 -2.646022
v 7.621814 -0.196719 -2.518404
v 7.023644 -0.196719 -2.518404
v 7.118030 0.983531 -1.187166
v 7.527428 0.983531 -1.187166
v 7.531374 0.694230 -0.823364
v 7.114084 0.694230 -0.823364
v 7.184463 1.610005 -0.365510
v 7.460996 1.610005 -0.365510
v 7.462374 1.420072 -0.120470
v 7.183084 1.420072 -0.120470
v 7.207967 2.759969 0.236648
v 7.437491 2.759969 0.236648
v 7.437882 2.643231 0.455606
v 7.207576 2.643231 0.455606
v 7.252303 3.890201 0.302939
v 7.393155 3.890201 0.302939
v 7.393395 3.915100 0.453174
v 7.252063 3.915100 0.453174
v 7.680388 0.496716 -4.089817
v 6.965070 0.496716 -4.089817
v 7.408423 3.902650 0.378057
v 7.237035 3.902650 0.378057
v 7.680388 -0.195258 -4.225900
v 6.965070 -0.195258 -4.225900
v 7.757186 0.150730 -4.157858
v 7.757186 0.097278 -3.885895
v 6.888272 0.150729 -4.157858
v 6.888272 0.097278 -3.885895
v 7.651101 0.432588 -3.231938
v 6.994357 0.432588 -3.231938
v 7.721254 0.071588 -3.227658
v 7.651101 -0.248363 -3.236171
v 7.686034 0.138245 -2.582213
v 6.994357 -0.248363 -3.236171
v 6.924204 0.071588 -3.227658
v 6.959424 0.138245 -2.582213
v 7.574621 0.615227 -1.781260
v 7.070837 0.615227 -1.781260
v 7.633363 0.335657 -1.696949
v 7.576594 0.135612 -1.535550
v 7.573779 0.838881 -1.005265
v 7.068864 0.135612 -1.535550
v 7.012095 0.335657 -1.696949
v 7.071680 0.838881 -0.913645
v 7.494212 1.296768 -0.684717
v 7.151246 1.296768 -0.684717
v 7.535374 1.154319 -0.557352
v 7.496874 1.057151 -0.380296
v 7.491522 1.515039 -0.242990
v 7.148584 1.057151 -0.380296
v 7.110084 1.154319 -0.557352
v 7.153936 1.515039 -0.242990
v 7.449243 2.184987 -0.014884
v 7.196215 2.184987 -0.014884
v 7.477325 2.091666 0.096245
v 7.450128 2.031651 0.217115
v 7.462370 2.701600 0.346127
v 7.195331 2.031651 0.217115
v 7.168133 2.091666 0.096245
v 7.183088 2.701600 0.346127
v 7.415323 3.325085 0.337789
v 7.230135 3.325085 0.337789
v 7.436591 3.274477 0.434601
v 7.415638 3.279165 0.522385
v 7.229820 3.279165 0.522385
v 7.208867 3.274477 0.434601
vt 0.375000 0.000000
vt 0.625000 0.000000
vt 0.375000 0.250000
vt 0.625000 0.250000
vt 0.375000 0.500000
vt 0.625000 0.500000
vt 0.375000 0.750000
vt 0.625000 0.750000
vt 0.875000 0.000000
vt 0.875000 0.250000
vt 0.125000 0.000000
vt 0.125000 0.250000
vt 0.375000 0.250000
vt 0.625000 0.250000
vt 0.625000 0.500000
vt 0.375000 0.500000
vt 0.375000 0.250000
vt 0.625000 0.250000
vt 0.625000 0.500000
vt 0.375000 0.500000
vt 0.375000 0.250000
vt 0.625000 0.250000
vt 0.625000 0.500000
vt 0.375000 0.500000
vt 0.375000 0.250000
vt 0.625000 0.250000
vt 0.625000 0.500000
vt 0.375000 0.500000
vt 0.375000 0.250000
vt 0.625000 0.250000
vt 0.625000 0.500000
vt 0.375000 0.500000
vt 0.625000 0.125000
vt 0.375000 0.125000
vt 0.625000 0.375000
vt 0.375000 0.375000
vt 0.625000 0.625000
vt 0.375000 0.625000
vt 0.750000 0.125000
vt 0.750000 0.000000
vt 0.875000 0.125000
vt 0.750000 0.250000
vt 0.250000 0.125000
vt 0.250000 0.000000
vt 0.250000 0.250000
vt 0.125000 0.125000
vt 0.625000 0.250000
vt 0.375000 0.250000
vt 0.625000 0.382516
vt 0.625000 0.375000
vt 0.625000 0.500000
vt 0.625000 0.375000
vt 0.375000 0.500000
vt 0.375000 0.382516
vt 0.375000 0.375000
vt 0.375000 0.375000
vt 0.625000 0.250000
vt 0.375000 0.250000
vt 0.625000 0.383958
vt 0.625000 0.500000
vt 0.625000 0.375000
vt 0.375000 0.500000
vt 0.375000 0.383958
vt 0.375000 0.375000
vt 0.625000 0.250000
vt 0.375000 0.250000
vt 0.625000 0.375296
vt 0.625000 0.500000
vt 0.625000 0.375000
vt 0.375000 0.500000
vt 0.375000 0.375296
vt 0.375000 0.375000
vt 0.625000 0.250000
vt 0.375000 0.250000
vt 0.625000 0.377756
vt 0.625000 0.500000
vt 0.625000 0.375000
vt 0.375000 0.500000
vt 0.375000 0.377756
vt 0.375000 0.375000
vt 0.625000 0.250000
vt 0.375000 0.250000
vt 0.625000 0.382063
vt 0.625000 0.500000
vt 0.375000 0.500000
vt 0.375000 0.382063
vt 0.625000 0.125000
vt 0.375000 0.125000
vt 0.375000 0.000000
vt 0.625000 0.000000
vt 0.625000 0.375000
vt 0.375000 0.375000
vt 0.375000 0.250000
vt 0.625000 0.250000
vt 0.625000 0.625000
vt 0.375000 0.625000
vt 0.375000 0.500000
vt 0.625000 0.500000
vt 0.750000 0.000000
vt 0.750000 0.125000
vt 0.125000 0.125000
vt 0.125000 0.000000
vt 0.250000 0.000000
vt 0.250000 0.125000
vt 0.625000 0.250000
vt 0.375000 0.250000
vt 0.375000 0.250000
vt 0.625000 0.250000
vt 0.625000 0.375000
vt 0.625000 0.382516
vt 0.375000 0.500000
vt 0.625000 0.500000
vt 0.375000 0.375000
vt 0.375000 0.382516
vt 0.625000 0.250000
vt 0.375000 0.250000
vt 0.375000 0.250000
vt 0.625000 0.250000
vt 0.625000 0.375000
vt 0.625000 0.383958
vt 0.375000 0.500000
vt 0.625000 0.500000
vt 0.625000 0.500000
vt 0.375000 0.500000
vt 0.375000 0.375000
vt 0.375000 0.383958
vt 0.625000 0.250000
vt 0.375000 0.250000
vt 0.375000 0.250000
vt 0.625000 0.250000
vt 0.625000 0.375000
vt 0.625000 0.375296
vt 0.375000 0.500000
vt 0.625000 0.500000
vt 0.625000 0.500000
vt 0.375000 0.500000
vt 0.375000 0.375000
vt 0.375000 0.375296
vt 0.625000 0.250000
vt 0.375000 0.250000
vt 0.375000 0.250000
vt 0.625000 0.250000
vt 0.625000 0.375000
vt 0.625000 0.377756
vt 0.375000 0.500000
vt 0.625000 0.500000
vt 0.625000 0.500000
vt 0.375000 0.500000
vt 0.375000 0.375000
vt 0.375000 0.377756
vt 0.625000 0.250000
vt 0.375000 0.250000
vt 0.375000 0.250000
vt 0.625000 0.250000
vt 0.625000 0.375000
vt 0.625000 0.382063
vt 0.375000 0.500000
vt 0.625000 0.500000
vt 0.625000 0.500000
vt 0.375000 0.500000
vt 0.375000 0.375000
vt 0.375000 0.382063
vt 0.625000 0.500000
vt 0.375000 0.500000
vt 0.625000 0.750000
vt 0.375000 0.750000
vt 0.875000 0.000000
vt 0.875000 0.125000
vt 0.875000 0.250000
vt 0.750000 0.250000
vt 0.250000 0.250000
vt 0.125000 0.250000
vn 0.408483 0.893573 0.186194
vn -0.408484 0.893573 0.186194
vn -0.409806 0.895380 0.174222
vn 0.409806 0.895380 0.174222
vn 0.971364 0.211756 0.107761
vn -0.971364 0.211756 0.107761
vn -0.443205 -0.284812 0.849971
vn 0.443208 -0.284811 0.849971
vn 0.404912 -0.895143 -0.186454
vn -0.404912 -0.895143 -0.186454
vn -0.375928 -0.867336 -0.326200
vn 0.375928 -0.867336 -0.326200
vn 0.999998 -0.002165 -0.000416
vn 0.999999 -0.001244 -0.000251
vn -0.403603 -0.898070 -0.174855
vn -0.999998 -0.002164 -0.000416
vn -0.999999 -0.001244 -0.000251
vn 0.462279 0.816663 0.345485
vn -0.462280 0.816663 0.345484
vn -0.463374 0.844591 0.268235
vn 0.463374 0.844591 0.268235
vn 0.999074 -0.009707 -0.041912
vn 0.998519 0.002042 -0.054375
vn -0.392983 -0.824719 -0.406698
vn 0.392983 -0.824719 -0.406698
vn -0.999074 -0.009707 -0.041912
vn -0.998519 0.002041 -0.054376
vn 0.508554 0.665631 0.546176
vn -0.530351 0.656328 0.536619
vn -0.474318 0.773102 0.421113
vn 0.474317 0.773102 0.421113
vn 0.998385 0.019816 -0.053253
vn 0.997684 0.023519 -0.063825
vn -0.361776 -0.588207 -0.723277
vn 0.375567 -0.583268 -0.720241
vn 0.386684 -0.742847 -0.546492
vn -0.386683 -0.742848 -0.546492
vn -0.998385 0.019814 -0.053253
vn -0.997841 0.024558 -0.060917
vn 0.459846 0.473072 0.751495
vn -0.474718 0.468470 0.745103
vn -0.520174 0.515041 0.681286
vn 0.467512 0.528951 0.708268
vn 0.997609 0.058619 -0.036604
vn 0.997061 0.070494 -0.029983
vn -0.378840 -0.316722 -0.869579
vn 0.410432 -0.312300 -0.856746
vn 0.404778 -0.412913 -0.815878
vn -0.382801 -0.419740 -0.822971
vn -0.997597 0.054469 -0.042809
vn -0.996673 0.077774 -0.024375
vn 0.459931 0.079630 0.884377
vn -0.459931 0.079631 0.884377
vn -0.474896 0.241353 0.846299
vn 0.474896 0.241353 0.846300
vn 0.998491 0.050753 -0.020981
vn 0.999695 0.022473 -0.010270
vn -0.419953 -0.028137 -0.907110
vn 0.419953 -0.028137 -0.907110
vn 0.427369 -0.117560 -0.896401
vn -0.427368 -0.117559 -0.896402
vn -0.998491 0.050754 -0.020981
vn -0.999695 0.022473 -0.010270
vn 0.453211 -0.274481 0.848092
vn -0.453211 -0.274481 0.848092
vn -0.465006 -0.070931 0.882462
vn 0.465005 -0.070932 0.882462
vn 0.999207 0.037465 -0.013471
vn 0.998585 0.052450 -0.008796
vn -0.376244 0.366531 -0.850938
vn 0.376244 0.366531 -0.850938
vn 0.398505 0.146849 -0.905334
vn -0.398506 0.146849 -0.905334
vn -0.999207 0.037465 -0.013471
vn -0.998585 0.052450 -0.008796
vn 0.389554 0.551881 -0.737343
vn -0.389555 0.551881 -0.737343
vn 0.403603 -0.898070 -0.174855
vn 0.406492 0.897382 0.171666
vn -0.406492 0.897383 0.171666
vn 0.971358 0.237105 -0.015671
vn 0.443206 0.072951 -0.893446
vn -0.443206 0.072951 -0.893446
vn -0.971358 0.237105 -0.015671
vn 0.406821 -0.897224 -0.171712
vn 0.375889 -0.925729 -0.041642
vn -0.375889 -0.925729 -0.041641
vn -0.406821 -0.897224 -0.171712
vn 1.000000 0.000116 0.000014
vn -1.000000 0.000116 0.000014
vn 0.462243 0.886745 0.003963
vn 0.463351 0.881996 0.085966
vn -0.463350 0.881996 0.085966
vn -0.462243 0.886745 0.003963
vn 0.998518 -0.019539 0.050789
vn 0.999074 -0.025437 0.034706
vn -0.392948 -0.918247 0.049131
vn 0.392949 -0.918247 0.049131
vn -0.998518 -0.019540 0.050790
vn -0.999074 -0.025437 0.034706
vn 0.508502 0.826946 -0.239971
vn 0.474279 0.876481 -0.082703
vn -0.474279 0.876481 -0.082703
vn -0.530299 0.814634 -0.234849
vn 0.997684 -0.003516 0.067930
vn 0.998384 -0.002759 0.056755
vn -0.361739 -0.825505 0.433227
vn -0.386645 -0.898035 0.209855
vn 0.386645 -0.898035 0.209856
vn 0.375529 -0.819771 0.432381
vn -0.997841 -0.001414 0.065668
vn -0.998384 -0.002760 0.056755
vn 0.459799 0.730799 -0.504497
vn 0.467468 0.765136 -0.442765
vn -0.520129 0.741729 -0.423442
vn -0.474670 0.724052 -0.500436
vn 0.997062 0.052993 0.055318
vn 0.997609 0.039467 0.056730
vn -0.378805 -0.633588 0.674591
vn -0.382759 -0.709923 0.591190
vn 0.404732 -0.700857 0.587360
vn 0.410392 -0.624472 0.664540
vn -0.996673 0.061892 0.053029
vn -0.997597 0.033211 0.060800
vn 0.459900 0.421498 -0.781557
vn 0.474851 0.555153 -0.682878
vn -0.474851 0.555153 -0.682877
vn -0.459901 0.421498 -0.781557
vn 0.999695 0.016614 0.018289
vn 0.998491 0.038393 0.039268
vn -0.419922 -0.383119 0.822730
vn -0.427338 -0.461095 0.777672
vn 0.427339 -0.461095 0.777672
vn 0.419922 -0.383119 0.822730
vn -0.999695 0.016614 0.018289
vn -0.998491 0.038394 0.039268
vn 0.453198 0.081709 -0.887657
vn 0.464983 0.282350 -0.839088
vn -0.464983 0.282350 -0.839088
vn -0.453198 0.081709 -0.887657
vn 0.998585 0.044750 0.028740
vn 0.999207 0.029134 0.027136
vn -0.376234 0.001790 0.926523
vn -0.398481 -0.221574 0.890010
vn 0.398481 -0.221573 0.890010
vn 0.376234 0.001790 0.926523
vn -0.998585 0.044751 0.028740
vn -0.999207 0.029132 0.027136
vn -0.389538 0.216916 0.895102
vn 0.389538 0.216916 0.895102
s 1
g pCube15
usemtl phong3SG
f 29/33/1 30/34/2 1/1/3 2/2/4
f 31/35/5 32/36/6 25/29/7 26/30/8
f 33/37/9 34/38/10 5/5/11 6/6/12
f 29/33/1 2/2/4 35/40/13 37/39/14
f 34/46/10 7/11/15 36/44/16 39/43/17
f 41/47/18 42/48/19 3/3/20 4/4/21
f 41/47/18 4/4/21 38/50/22 43/49/23
f 46/53/24 44/51/25 6/6/12 5/5/11
f 46/53/24 5/5/11 40/55/26 47/54/27
f 49/57/28 50/58/29 9/13/30 10/14/31
f 49/57/28 10/14/31 45/52/32 51/59/33
f 54/62/34 52/60/35 11/15/36 12/16/37
f 54/62/34 12/16/37 48/56/38 55/63/39
f 57/65/40 58/66/41 13/17/42 14/18/43
f 57/65/40 14/18/43 53/61/44 59/67/45
f 62/70/46 60/68/47 15/19/48 16/20/49
f 62/70/46 16/20/49 56/64/50 63/71/51
f 65/73/52 66/74/53 17/21/54 18/22/55
f 65/73/52 18/22/55 61/69/56 67/75/57
f 70/78/58 68/76/59 19/23/60 20/24/61
f 70/78/58 20/24/61 64/72/62 71/79/63
f 73/81/64 74/82/65 21/25/66 22/26/67
f 73/81/64 22/26/67 69/77/68 75/83/69
f 77/85/70 76/84/71 23/27/72 24/28/73
f 77/85/70 24/28/73 72/80/74 78/86/75
f 29/33/1 4/4/21 3/3/20 30/34/2
f 31/35/5 27/31/76 28/32/77 32/36/6
f 33/37/9 8/8/78 7/7/15 34/38/10
f 35/40/13 8/9/78 33/41/9 37/39/14
f 33/41/9 6/10/12 38/42/22 37/39/14
f 38/42/22 4/4/21 29/33/1 37/39/14
f 36/44/16 1/1/3 30/34/2 39/43/17
f 30/34/2 3/3/20 40/45/26 39/43/17
f 40/45/26 5/12/11 34/46/10 39/43/17
f 41/47/18 10/14/31 9/13/30 42/48/19
f 38/50/22 6/6/12 44/51/25 43/49/23
f 44/51/25 11/15/36 45/52/32 43/49/23
f 45/52/32 10/14/31 41/47/18 43/49/23
f 46/53/24 12/16/37 11/15/36 44/51/25
f 40/55/26 3/3/20 42/48/19 47/54/27
f 42/48/19 9/13/30 48/56/38 47/54/27
f 48/56/38 12/16/37 46/53/24 47/54/27
f 49/57/28 14/18/43 13/17/42 50/58/29
f 45/52/32 11/15/36 52/60/35 51/59/33
f 52/60/35 15/19/48 53/61/44 51/59/33
f 53/61/44 14/18/43 49/57/28 51/59/33
f 54/62/34 16/20/49 15/19/48 52/60/35
f 48/56/38 9/13/30 50/58/29 55/63/39
f 50/58/29 13/17/42 56/64/50 55/63/39
f 56/64/50 16/20/49 54/62/34 55/63/39
f 57/65/40 18/22/55 17/21/54 58/66/41
f 53/61/44 15/19/48 60/68/47 59/67/45
f 60/68/47 19/23/60 61/69/56 59/67/45
f 61/69/56 18/22/55 57/65/40 59/67/45
f 62/70/46 20/24/61 19/23/60 60/68/47
f 56/64/50 13/17/42 58/66/41 63/71/51
f 58/66/41 17/21/54 64/72/62 63/71/51
f 64/72/62 20/24/61 62/70/46 63/71/51
f 65/73/52 22/26/67 21/25/66 66/74/53
f 61/69/56 19/23/60 68/76/59 67/75/57
f 68/76/59 23/27/72 69/77/68 67/75/57
f 69/77/68 22/26/67 65/73/52 67/75/57
f 70/78/58 24/28/73 23/27/72 68/76/59
f 64/72/62 17/21/54 66/74/53 71/79/63
f 66/74/53 21/25/66 72/80/74 71/79/63
f 72/80/74 24/28/73 70/78/58 71/79/63
f 73/81/64 26/30/8 25/29/7 74/82/65
f 69/77/68 23/27/72 76/84/71 75/83/69
f 76/84/71 27/31/76 31/35/5 75/83/69
f 31/35/5 26/30/8 73/81/64 75/83/69
f 77/85/70 28/32/77 27/31/76 76/84/71
f 72/80/74 21/25/66 74/82/65 78/86/75
f 74/82/65 25/29/7 32/36/6 78/86/75
f 32/36/6 28/32/77 77/85/70 78/86/75
f 103/87/79 2/90/4 1/89/3 104/88/80
f 105/91/81 100/94/82 99/93/83 106/92/84
f 107/95/85 82/98/86 81/97/87 108/96/88
f 103/87/79 109/100/89 35/99/13 2/90/4
f 108/101/88 111/104/90 36/103/16 7/102/15
f 113/105/91 80/108/92 79/107/93 114/106/94
f 113/105/91 115/110/95 110/109/96 80/108/92
f 118/111/97 81/97/87 82/98/86 116/112/98
f 118/111/97 119/114/99 112/113/100 81/97/87
f 121/115/101 84/118/102 83/117/103 122/116/104
f 121/115/101 123/120/105 117/119/106 84/118/102
f 126/121/107 86/124/108 85/123/109 124/122/110
f 126/121/107 127/126/111 120/125/112 86/124/108
f 129/127/113 88/130/114 87/129/115 130/128/116
f 129/127/113 131/132/117 125/131/118 88/130/114
f 134/133/119 90/136/120 89/135/121 132/134/122
f 134/133/119 135/138/123 128/137/124 90/136/120
f 137/139/125 92/142/126 91/141/127 138/140/128
f 137/139/125 139/144/129 133/143/130 92/142/126
f 142/145/131 94/148/132 93/147/133 140/146/134
f 142/145/131 143/150/135 136/149/136 94/148/132
f 145/151/137 96/154/138 95/153/139 146/152/140
f 145/151/137 147/156/141 141/155/142 96/154/138
f 149/157/143 98/160/144 97/159/145 148/158/146
f 149/157/143 150/162/147 144/161/148 98/160/144
f 103/87/79 104/88/80 79/107/93 80/108/92
f 105/91/81 106/92/84 102/164/149 101/163/150
f 107/95/85 108/96/88 7/166/15 8/165/78
f 35/99/13 109/100/89 107/168/85 8/167/78
f 107/168/85 109/100/89 110/170/96 82/169/86
f 110/170/96 109/100/89 103/87/79 80/108/92
f 36/103/16 111/104/90 104/88/80 1/89/3
f 104/88/80 111/104/90 112/171/100 79/107/93
f 112/171/100 111/104/90 108/101/88 81/172/87
f 113/105/91 114/106/94 83/117/103 84/118/102
f 110/109/96 115/110/95 116/112/98 82/98/86
f 116/112/98 115/110/95 117/119/106 85/123/109
f 117/119/106 115/110/95 113/105/91 84/118/102
f 118/111/97 116/112/98 85/123/109 86/124/108
f 112/113/100 119/114/99 114/106/94 79/107/93
f 114/106/94 119/114/99 120/125/112 83/117/103
f 120/125/112 119/114/99 118/111/97 86/124/108
f 121/115/101 122/116/104 87/129/115 88/130/114
f 117/119/106 123/120/105 124/122/110 85/123/109
f 124/122/110 123/120/105 125/131/118 89/135/121
f 125/131/118 123/120/105 121/115/101 88/130/114
f 126/121/107 124/122/110 89/135/121 90/136/120
f 120/125/112 127/126/111 122/116/104 83/117/103
f 122/116/104 127/126/111 128/137/124 87/129/115
f 128/137/124 127/126/111 126/121/107 90/136/120
f 129/127/113 130/128/116 91/141/127 92/142/126
f 125/131/118 131/132/117 132/134/122 89/135/121
f 132/134/122 131/132/117 133/143/130 93/147/133
f 133/143/130 131/132/117 129/127/113 92/142/126
f 134/133/119 132/134/122 93/147/133 94/148/132
f 128/137/124 135/138/123 130/128/116 87/129/115
f 130/128/116 135/138/123 136/149/136 91/141/127
f 136/149/136 135/138/123 134/133/119 94/148/132
f 137/139/125 138/140/128 95/153/139 96/154/138
f 133/143/130 139/144/129 140/146/134 93/147/133
f 140/146/134 139/144/129 141/155/142 97/159/145
f 141/155/142 139/144/129 137/139/125 96/154/138
f 142/145/131 140/146/134 97/159/145 98/160/144
f 136/149/136 143/150/135 138/140/128 91/141/127
f 138/140/128 143/150/135 144/161/148 95/153/139
f 144/161/148 143/150/135 142/145/131 98/160/144
f 145/151/137 146/152/140 99/93/83 100/94/82
f 141/155/142 147/156/141 148/158/146 97/159/145
f 148/158/146 147/156/141 105/91/81 101/163/150
f 105/91/81 147/156/141 145/151/137 100/94/82
f 149/157/143 148/158/146 101/163/150 102/164/149
f 144/161/148 150/162/147 146/152/140 95/153/139
f 146/152/140 150/162/147 106/92/84 99/93/83
f 106/92/84 150/162/147 149/157/143 102/164/149
