# This file uses centimeters as units for non-parametric coordinates.

mtllib Rock1.mtl
g default
v -7.811356 -0.056149 -1.897077
v -7.434754 -0.497506 -3.159780
v -7.035277 -0.696727 -4.537310
v -6.486139 0.019060 -6.081397
v -7.323710 1.120349 -0.583409
v -5.925943 1.256554 -2.435416
v -6.309257 1.245899 -4.420938
v -5.580348 1.290372 -6.422153
v -7.628308 3.237792 -1.027137
v -7.195028 3.536130 -2.788853
v -6.762345 3.944516 -4.574895
v -6.237823 3.669587 -6.432774
v -9.528825 3.522865 -1.412901
v -9.132526 4.229142 -3.333583
v -8.697554 4.360637 -5.008622
v -8.140460 3.960897 -6.863024
v -11.387320 3.945681 -1.853279
v -10.814170 4.178886 -3.763757
v -10.378295 4.292528 -5.444497
v -9.947815 3.906071 -7.323968
v -13.321943 3.687709 -2.267277
v -12.705612 3.960929 -4.172520
v -12.238296 3.933339 -5.984887
v -11.814386 3.659453 -7.871154
v -13.796329 1.594791 -1.667313
v -14.250084 1.340121 -4.512679
v -13.676262 1.296662 -6.408114
v -12.213334 1.261644 -8.577037
v -12.930786 -0.828227 -2.518891
v -12.497956 -0.828227 -4.200422
v -12.072121 -0.828227 -5.883766
v -11.625373 -0.828227 -7.561687
v -11.262670 -0.825581 -2.070791
v -10.814170 -0.838109 -3.763757
v -10.377184 -0.892454 -5.432438
v -9.926997 -0.835250 -7.039640
v -9.560326 -0.593281 -1.849495
v -9.128131 -0.768922 -3.376852
v -8.686004 -1.020447 -4.900211
v -8.212417 -0.631547 -6.332612
v -9.466789 1.309904 -8.721794
v -7.727184 1.295511 -8.193900
v -11.719755 1.541102 -0.522031
v -9.895775 1.041162 -0.131730
v -12.166465 2.576364 -8.472073
v -13.213729 2.756242 -6.345989
v -13.787043 2.794776 -4.303143
v -13.760850 2.754852 -1.844072
v -11.692947 2.883024 -0.960404
v -9.687359 2.383763 -0.490401
v -7.356804 2.266792 -0.608512
v -6.367492 2.500399 -2.474509
v -6.270362 2.748086 -4.501310
v -5.656894 2.596789 -6.567107
v -7.765179 2.772223 -7.766698
v -9.724503 2.747504 -8.622124
vt 0.375000 0.000000
vt 0.458333 0.000000
vt 0.541667 0.000000
vt 0.625000 0.000000
vt 0.375000 0.125000
vt 0.458333 0.125000
vt 0.541667 0.125000
vt 0.625000 0.125000
vt 0.375000 0.250000
vt 0.458333 0.250000
vt 0.541667 0.250000
vt 0.625000 0.250000
vt 0.375000 0.333333
vt 0.458333 0.333333
vt 0.541667 0.333333
vt 0.625000 0.333333
vt 0.375000 0.416667
vt 0.458333 0.416667
vt 0.541667 0.416667
vt 0.625000 0.416667
vt 0.375000 0.500000
vt 0.458333 0.500000
vt 0.541667 0.500000
vt 0.625000 0.500000
vt 0.375000 0.625000
vt 0.458333 0.625000
vt 0.541667 0.625000
vt 0.625000 0.625000
vt 0.375000 0.750000
vt 0.458333 0.750000
vt 0.541667 0.750000
vt 0.625000 0.750000
vt 0.375000 0.833333
vt 0.458333 0.833333
vt 0.541667 0.833333
vt 0.625000 0.833333
vt 0.375000 0.916667
vt 0.458333 0.916667
vt 0.541667 0.916667
vt 0.625000 0.916667
vt 0.375000 1.000000
vt 0.458333 1.000000
vt 0.541667 1.000000
vt 0.625000 1.000000
vt 0.875000 0.000000
vt 0.791667 0.000000
vt 0.708333 0.000000
vt 0.875000 0.125000
vt 0.791667 0.125000
vt 0.708333 0.125000
vt 0.875000 0.250000
vt 0.791667 0.250000
vt 0.708333 0.250000
vt 0.125000 0.000000
vt 0.208333 0.000000
vt 0.291667 0.000000
vt 0.125000 0.125000
vt 0.208333 0.125000
vt 0.291667 0.125000
vt 0.125000 0.250000
vt 0.208333 0.250000
vt 0.291667 0.250000
vt 0.625000 0.555625
vt 0.875000 0.194375
vt 0.541667 0.555625
vt 0.458333 0.555625
vt 0.125000 0.194375
vt 0.375000 0.555625
vt 0.208333 0.194375
vt 0.291667 0.194375
vt 0.375000 0.194375
vt 0.458333 0.194375
vt 0.541667 0.194375
vt 0.625000 0.194375
vt 0.708333 0.194375
vt 0.791667 0.194375
vn 0.362290 -0.783593 0.504706
vn 0.539780 -0.812796 0.219088
vn 0.919624 -0.285574 0.269702
vn 0.467044 -0.381824 0.797547
vn 0.596379 -0.802082 0.031560
vn 0.961509 -0.240934 0.132101
vn 0.645604 -0.693294 -0.320216
vn 0.883553 -0.294029 -0.364529
vn 0.460320 0.351824 0.815062
vn 0.901758 0.339648 0.267343
vn 0.459631 0.842623 0.280582
vn 0.310899 0.773055 0.552927
vn 0.940380 0.287645 0.181509
vn 0.484015 0.868383 0.107894
vn 0.875870 0.276581 -0.395417
vn 0.555963 0.772481 -0.306884
vn 0.102596 0.972576 0.208735
vn 0.058465 0.846155 0.529720
vn 0.108195 0.994024 -0.014534
vn 0.204304 0.881903 -0.424862
vn -0.075357 0.992191 0.099387
vn -0.100531 0.902641 0.418490
vn -0.071810 0.992900 -0.094834
vn 0.033380 0.888705 -0.457262
vn -0.433281 0.900314 -0.041257
vn -0.492032 0.829369 0.264671
vn -0.414670 0.889890 -0.190116
vn -0.307603 0.811777 -0.496385
vn -0.894684 0.433186 -0.109042
vn -0.783371 0.413933 0.463670
vn -0.829795 0.438355 -0.345377
vn -0.480389 0.370244 -0.795076
vn -0.797610 -0.265495 0.541601
vn -0.954652 -0.281703 -0.096351
vn -0.594012 -0.802572 -0.055027
vn -0.606429 -0.699932 0.377279
vn -0.889424 -0.280942 -0.360550
vn -0.542572 -0.814451 -0.205631
vn -0.467468 -0.319176 -0.824379
vn -0.323732 -0.732498 -0.598870
vn 0.001726 -0.999066 0.043173
vn -0.180333 -0.802734 0.568417
vn -0.002786 -0.999896 -0.014161
vn 0.132108 -0.809644 -0.571860
vn 0.092055 -0.983740 0.154215
vn 0.042466 -0.841508 0.538574
vn 0.115629 -0.993089 -0.020108
vn 0.296413 -0.822412 -0.485569
vn 0.179589 -0.338905 -0.923521
vn 0.437949 -0.349489 -0.828286
vn 0.119850 0.408553 -0.904831
vn 0.402623 0.389916 -0.828167
vn -0.301843 -0.251773 0.919511
vn -0.019851 -0.410772 0.911522
vn -0.231399 0.463702 0.855240
vn -0.011381 0.388396 0.921422
s 1
g pCube4
usemtl phong1SG
f 1/1/1 2/2/2 6/6/3 5/5/4
f 2/2/2 3/3/5 7/7/6 6/6/3
f 3/3/5 4/4/7 8/8/8 7/7/6
f 51/71/9 52/72/10 10/10/11 9/9/12
f 52/72/10 53/73/13 11/11/14 10/10/11
f 53/73/13 54/74/15 12/12/16 11/11/14
f 9/9/12 10/10/11 14/14/17 13/13/18
f 10/10/11 11/11/14 15/15/19 14/14/17
f 11/11/14 12/12/16 16/16/20 15/15/19
f 13/13/18 14/14/17 18/18/21 17/17/22
f 14/14/17 15/15/19 19/19/23 18/18/21
f 15/15/19 16/16/20 20/20/24 19/19/23
f 17/17/22 18/18/21 22/22/25 21/21/26
f 18/18/21 19/19/23 23/23/27 22/22/25
f 19/19/23 20/20/24 24/24/28 23/23/27
f 21/21/26 22/22/25 47/66/29 48/68/30
f 22/22/25 23/23/27 46/65/31 47/66/29
f 23/23/27 24/24/28 45/63/32 46/65/31
f 25/25/33 26/26/34 30/30/35 29/29/36
f 26/26/34 27/27/37 31/31/38 30/30/35
f 27/27/37 28/28/39 32/32/40 31/31/38
f 29/29/36 30/30/35 34/34/41 33/33/42
f 30/30/35 31/31/38 35/35/43 34/34/41
f 31/31/38 32/32/40 36/36/44 35/35/43
f 33/33/42 34/34/41 38/38/45 37/37/46
f 34/34/41 35/35/43 39/39/47 38/38/45
f 35/35/43 36/36/44 40/40/48 39/39/47
f 37/37/46 38/38/45 2/42/2 1/41/1
f 38/38/45 39/39/47 3/43/5 2/42/2
f 39/39/47 40/40/48 4/44/7 3/43/5
f 36/46/44 32/45/40 28/48/39 41/49/49
f 40/47/48 36/46/44 41/49/49 42/50/50
f 4/4/7 40/47/48 42/50/50 8/8/8
f 56/76/51 45/64/32 24/51/28 20/52/24
f 55/75/52 56/76/51 20/52/24 16/53/20
f 54/74/15 55/75/52 16/53/20 12/12/16
f 29/54/36 33/55/42 43/58/53 25/57/33
f 33/55/42 37/56/46 44/59/54 43/58/53
f 37/56/46 1/1/1 5/5/4 44/59/54
f 48/67/30 49/69/55 17/61/22 21/60/26
f 49/69/55 50/70/56 13/62/18 17/61/22
f 50/70/56 51/71/9 9/9/12 13/62/18
f 46/65/31 45/63/32 28/28/39 27/27/37
f 47/66/29 46/65/31 27/27/37 26/26/34
f 48/68/30 47/66/29 26/26/34 25/25/33
f 25/57/33 43/58/53 49/69/55 48/67/30
f 43/58/53 44/59/54 50/70/56 49/69/55
f 44/59/54 5/5/4 51/71/9 50/70/56
f 5/5/4 6/6/3 52/72/10 51/71/9
f 6/6/3 7/7/6 53/73/13 52/72/10
f 7/7/6 8/8/8 54/74/15 53/73/13
f 8/8/8 42/50/50 55/75/52 54/74/15
f 42/50/50 41/49/49 56/76/51 55/75/52
f 41/49/49 28/48/39 45/64/32 56/76/51
